<mxfile host="app.diagrams.net" modified="2022-07-18T05:41:50.293Z" agent="5.0 (Windows NT 10.0; Win64; x64) AppleWebKit/537.36 (KHTML, like Gecko) Chrome/103.0.0.0 Safari/537.36" etag="P0Xuk7FekDSdLAC6-2T0" version="20.1.1" type="github">
  <diagram id="emxfY2-Sq-O-D1lA9IJM" name="Page-1">
    <mxGraphModel dx="1848" dy="1748" grid="1" gridSize="10" guides="1" tooltips="1" connect="1" arrows="1" fold="1" page="1" pageScale="1" pageWidth="827" pageHeight="1169" math="0" shadow="0">
      <root>
        <mxCell id="0" />
        <mxCell id="1" parent="0" />
        <mxCell id="iXk9eSZz2ZHoy0t9PR9_-7" value="" style="edgeStyle=orthogonalEdgeStyle;rounded=0;orthogonalLoop=1;jettySize=auto;html=1;" parent="1" source="iXk9eSZz2ZHoy0t9PR9_-1" target="iXk9eSZz2ZHoy0t9PR9_-3" edge="1">
          <mxGeometry relative="1" as="geometry" />
        </mxCell>
        <mxCell id="iXk9eSZz2ZHoy0t9PR9_-1" value="internet" style="outlineConnect=0;dashed=0;verticalLabelPosition=bottom;verticalAlign=top;align=center;html=1;shape=mxgraph.aws3.internet_2;fillColor=#D2D3D3;gradientColor=none;" parent="1" vertex="1">
          <mxGeometry x="100.5" y="150" width="79.5" height="54" as="geometry" />
        </mxCell>
        <mxCell id="iXk9eSZz2ZHoy0t9PR9_-10" value="" style="edgeStyle=orthogonalEdgeStyle;rounded=0;orthogonalLoop=1;jettySize=auto;html=1;" parent="1" source="iXk9eSZz2ZHoy0t9PR9_-2" target="iXk9eSZz2ZHoy0t9PR9_-30" edge="1">
          <mxGeometry relative="1" as="geometry" />
        </mxCell>
        <mxCell id="iXk9eSZz2ZHoy0t9PR9_-2" value="Sensor" style="outlineConnect=0;dashed=0;verticalLabelPosition=bottom;verticalAlign=top;align=center;html=1;shape=mxgraph.aws3.sensor;fillColor=#5294CF;gradientColor=none;" parent="1" vertex="1">
          <mxGeometry x="420" y="120" width="60" height="50" as="geometry" />
        </mxCell>
        <mxCell id="iXk9eSZz2ZHoy0t9PR9_-12" value="" style="edgeStyle=orthogonalEdgeStyle;rounded=0;orthogonalLoop=1;jettySize=auto;html=1;" parent="1" source="iXk9eSZz2ZHoy0t9PR9_-3" target="iXk9eSZz2ZHoy0t9PR9_-5" edge="1">
          <mxGeometry relative="1" as="geometry">
            <mxPoint x="260" y="70" as="targetPoint" />
          </mxGeometry>
        </mxCell>
        <mxCell id="iXk9eSZz2ZHoy0t9PR9_-3" value="Cloud" style="image;html=1;image=img/lib/clip_art/networking/Cloud_Server_128x128.png" parent="1" vertex="1">
          <mxGeometry x="100" y="30" width="80" height="80" as="geometry" />
        </mxCell>
        <mxCell id="iXk9eSZz2ZHoy0t9PR9_-9" value="" style="edgeStyle=orthogonalEdgeStyle;rounded=0;orthogonalLoop=1;jettySize=auto;html=1;" parent="1" source="iXk9eSZz2ZHoy0t9PR9_-4" target="iXk9eSZz2ZHoy0t9PR9_-1" edge="1">
          <mxGeometry relative="1" as="geometry" />
        </mxCell>
        <mxCell id="iXk9eSZz2ZHoy0t9PR9_-13" value="" style="edgeStyle=orthogonalEdgeStyle;rounded=0;orthogonalLoop=1;jettySize=auto;html=1;" parent="1" source="iXk9eSZz2ZHoy0t9PR9_-4" target="iXk9eSZz2ZHoy0t9PR9_-6" edge="1">
          <mxGeometry relative="1" as="geometry" />
        </mxCell>
        <mxCell id="iXk9eSZz2ZHoy0t9PR9_-4" value="IOT &amp;amp; Database" style="aspect=fixed;perimeter=ellipsePerimeter;html=1;align=center;shadow=0;dashed=0;spacingTop=3;image;image=img/lib/active_directory/database_server.svg;" parent="1" vertex="1">
          <mxGeometry x="243.5" y="110" width="41" height="50" as="geometry" />
        </mxCell>
        <mxCell id="iXk9eSZz2ZHoy0t9PR9_-18" style="edgeStyle=orthogonalEdgeStyle;rounded=0;orthogonalLoop=1;jettySize=auto;html=1;entryX=0;entryY=0.5;entryDx=0;entryDy=0;" parent="1" source="iXk9eSZz2ZHoy0t9PR9_-5" target="iXk9eSZz2ZHoy0t9PR9_-14" edge="1">
          <mxGeometry relative="1" as="geometry">
            <mxPoint x="530" y="64" as="targetPoint" />
          </mxGeometry>
        </mxCell>
        <mxCell id="iXk9eSZz2ZHoy0t9PR9_-21" style="edgeStyle=orthogonalEdgeStyle;rounded=0;orthogonalLoop=1;jettySize=auto;html=1;entryX=0.5;entryY=1;entryDx=0;entryDy=0;" parent="1" source="iXk9eSZz2ZHoy0t9PR9_-5" target="iXk9eSZz2ZHoy0t9PR9_-15" edge="1">
          <mxGeometry relative="1" as="geometry" />
        </mxCell>
        <mxCell id="iXk9eSZz2ZHoy0t9PR9_-5" value="Dashboard" style="aspect=fixed;html=1;points=[];align=center;image;fontSize=12;image=img/lib/azure2/general/Dashboard.svg;" parent="1" vertex="1">
          <mxGeometry x="230" y="20" width="68" height="48" as="geometry" />
        </mxCell>
        <mxCell id="iXk9eSZz2ZHoy0t9PR9_-25" style="edgeStyle=orthogonalEdgeStyle;rounded=0;orthogonalLoop=1;jettySize=auto;html=1;" parent="1" source="iXk9eSZz2ZHoy0t9PR9_-6" target="iXk9eSZz2ZHoy0t9PR9_-23" edge="1">
          <mxGeometry relative="1" as="geometry" />
        </mxCell>
        <mxCell id="iXk9eSZz2ZHoy0t9PR9_-26" style="edgeStyle=orthogonalEdgeStyle;rounded=0;orthogonalLoop=1;jettySize=auto;html=1;" parent="1" source="iXk9eSZz2ZHoy0t9PR9_-6" target="iXk9eSZz2ZHoy0t9PR9_-24" edge="1">
          <mxGeometry relative="1" as="geometry" />
        </mxCell>
        <mxCell id="iXk9eSZz2ZHoy0t9PR9_-6" value="Shared Dashboard" style="sketch=0;aspect=fixed;html=1;points=[];align=center;image;fontSize=12;image=img/lib/mscae/Shared_Dashboard.svg;" parent="1" vertex="1">
          <mxGeometry x="233.51" y="220" width="60.98" height="50" as="geometry" />
        </mxCell>
        <mxCell id="iXk9eSZz2ZHoy0t9PR9_-14" value="User" style="shape=image;html=1;verticalAlign=top;verticalLabelPosition=bottom;labelBackgroundColor=#ffffff;imageAspect=0;aspect=fixed;image=https://cdn4.iconfinder.com/data/icons/essential-app-2/16/user-avatar-human-admin-login-128.png" parent="1" vertex="1">
          <mxGeometry x="420" y="49" width="30" height="30" as="geometry" />
        </mxCell>
        <mxCell id="iXk9eSZz2ZHoy0t9PR9_-15" value="SU" style="shape=image;html=1;verticalAlign=top;verticalLabelPosition=bottom;labelBackgroundColor=#ffffff;imageAspect=0;aspect=fixed;image=https://cdn3.iconfinder.com/data/icons/essential-rounded/64/Rounded-31-128.png" parent="1" vertex="1">
          <mxGeometry x="340" y="-20" width="40" height="40" as="geometry" />
        </mxCell>
        <mxCell id="iXk9eSZz2ZHoy0t9PR9_-23" value="SU" style="shape=image;html=1;verticalAlign=top;verticalLabelPosition=bottom;labelBackgroundColor=#ffffff;imageAspect=0;aspect=fixed;image=https://cdn3.iconfinder.com/data/icons/essential-rounded/64/Rounded-31-128.png" parent="1" vertex="1">
          <mxGeometry x="360" y="190" width="40" height="40" as="geometry" />
        </mxCell>
        <mxCell id="iXk9eSZz2ZHoy0t9PR9_-24" value="User" style="shape=image;html=1;verticalAlign=top;verticalLabelPosition=bottom;labelBackgroundColor=#ffffff;imageAspect=0;aspect=fixed;image=https://cdn4.iconfinder.com/data/icons/essential-app-2/16/user-avatar-human-admin-login-128.png" parent="1" vertex="1">
          <mxGeometry x="340" y="280" width="30" height="30" as="geometry" />
        </mxCell>
        <mxCell id="iXk9eSZz2ZHoy0t9PR9_-28" value="Gate Sensor&lt;br&gt;Metal&lt;br&gt;Loop" style="whiteSpace=wrap;html=1;aspect=fixed;" parent="1" vertex="1">
          <mxGeometry x="110" y="380" width="80" height="80" as="geometry" />
        </mxCell>
        <mxCell id="iXk9eSZz2ZHoy0t9PR9_-29" value="Fitur&lt;br&gt;Cam&lt;br&gt;LCD" style="whiteSpace=wrap;html=1;aspect=fixed;" parent="1" vertex="1">
          <mxGeometry x="234" y="380" width="80" height="80" as="geometry" />
        </mxCell>
        <mxCell id="iXk9eSZz2ZHoy0t9PR9_-31" style="edgeStyle=orthogonalEdgeStyle;rounded=0;orthogonalLoop=1;jettySize=auto;html=1;entryX=1;entryY=0.75;entryDx=0;entryDy=0;" parent="1" source="iXk9eSZz2ZHoy0t9PR9_-30" target="iXk9eSZz2ZHoy0t9PR9_-4" edge="1">
          <mxGeometry relative="1" as="geometry" />
        </mxCell>
        <mxCell id="iXk9eSZz2ZHoy0t9PR9_-30" value="Controller" style="sketch=0;outlineConnect=0;fontColor=#232F3E;gradientColor=none;fillColor=#3F8624;strokeColor=none;dashed=0;verticalLabelPosition=bottom;verticalAlign=top;align=center;html=1;fontSize=12;fontStyle=0;aspect=fixed;pointerEvents=1;shape=mxgraph.aws4.iot_thing_plc;" parent="1" vertex="1">
          <mxGeometry x="330" y="100" width="50" height="50" as="geometry" />
        </mxCell>
        <mxCell id="iXk9eSZz2ZHoy0t9PR9_-32" value="Trigger&lt;br&gt;RFID&lt;br&gt;E-cash&lt;br&gt;Button" style="whiteSpace=wrap;html=1;aspect=fixed;" parent="1" vertex="1">
          <mxGeometry x="360" y="380" width="80" height="80" as="geometry" />
        </mxCell>
        <mxCell id="iXk9eSZz2ZHoy0t9PR9_-38" value="Flow&amp;nbsp; System Admin" style="text;html=1;strokeColor=none;fillColor=none;align=center;verticalAlign=middle;whiteSpace=wrap;rounded=0;fontStyle=1;fontSize=29;" parent="1" vertex="1">
          <mxGeometry x="110" y="-70" width="220" height="30" as="geometry" />
        </mxCell>
        <mxCell id="iXk9eSZz2ZHoy0t9PR9_-39" value="&lt;h1 style=&quot;&quot;&gt;&lt;font style=&quot;font-size: 27px;&quot;&gt;Requirement&lt;/font&gt;&lt;/h1&gt;&lt;div style=&quot;font-size: 19px;&quot;&gt;&lt;font style=&quot;font-size: 19px;&quot;&gt;-&lt;/font&gt;&lt;font style=&quot;font-size: 19px;&quot;&gt;Split Database&lt;/font&gt;&lt;/div&gt;&lt;div style=&quot;font-size: 19px;&quot;&gt;&lt;font style=&quot;font-size: 19px;&quot;&gt;-Minimalist Space&lt;/font&gt;&lt;/div&gt;&lt;div style=&quot;font-size: 19px;&quot;&gt;&lt;font style=&quot;font-size: 19px;&quot;&gt;-Payment&lt;/font&gt;&lt;/div&gt;&lt;div style=&quot;font-size: 19px;&quot;&gt;&lt;font style=&quot;font-size: 19px;&quot;&gt;-LowPower Consum&lt;/font&gt;&lt;/div&gt;&lt;div style=&quot;font-size: 19px;&quot;&gt;&lt;font style=&quot;font-size: 19px;&quot;&gt;-User, Management dan Technical&lt;/font&gt;&lt;/div&gt;" style="text;html=1;strokeColor=none;fillColor=none;spacing=5;spacingTop=-20;whiteSpace=wrap;overflow=hidden;rounded=0;fontSize=29;" parent="1" vertex="1">
          <mxGeometry x="560" y="-130" width="304" height="250" as="geometry" />
        </mxCell>
        <mxCell id="iXk9eSZz2ZHoy0t9PR9_-56" value="" style="group" parent="1" vertex="1" connectable="0">
          <mxGeometry x="110" y="500" width="476" height="84.00999999999999" as="geometry" />
        </mxCell>
        <mxCell id="iXk9eSZz2ZHoy0t9PR9_-34" value="Sensor Read" style="aspect=fixed;perimeter=ellipsePerimeter;html=1;align=center;fontSize=12;verticalAlign=top;fontColor=#364149;shadow=0;dashed=0;image;image=img/lib/cumulus/server_bare_metal.svg;" parent="iXk9eSZz2ZHoy0t9PR9_-56" vertex="1">
          <mxGeometry x="102" y="47.120000000000005" width="66" height="13.75" as="geometry" />
        </mxCell>
        <mxCell id="iXk9eSZz2ZHoy0t9PR9_-35" value="LCD message" style="sketch=0;pointerEvents=1;shadow=0;dashed=0;html=1;strokeColor=none;fillColor=#505050;labelPosition=center;verticalLabelPosition=bottom;verticalAlign=top;outlineConnect=0;align=center;shape=mxgraph.office.devices.lcd_monitor;" parent="iXk9eSZz2ZHoy0t9PR9_-56" vertex="1">
          <mxGeometry x="202" y="30" width="58" height="48" as="geometry" />
        </mxCell>
        <mxCell id="iXk9eSZz2ZHoy0t9PR9_-37" value="" style="edgeStyle=orthogonalEdgeStyle;rounded=0;orthogonalLoop=1;jettySize=auto;html=1;" parent="iXk9eSZz2ZHoy0t9PR9_-56" source="iXk9eSZz2ZHoy0t9PR9_-34" target="iXk9eSZz2ZHoy0t9PR9_-35" edge="1">
          <mxGeometry relative="1" as="geometry" />
        </mxCell>
        <mxCell id="iXk9eSZz2ZHoy0t9PR9_-41" value="I/O" style="text;html=1;strokeColor=none;fillColor=none;align=center;verticalAlign=middle;whiteSpace=wrap;rounded=0;fontSize=19;" parent="iXk9eSZz2ZHoy0t9PR9_-56" vertex="1">
          <mxGeometry width="60" height="30" as="geometry" />
        </mxCell>
        <mxCell id="iXk9eSZz2ZHoy0t9PR9_-44" value="Gate Open/Close" style="aspect=fixed;perimeter=ellipsePerimeter;html=1;align=center;fontSize=12;verticalAlign=top;fontColor=#364149;shadow=0;dashed=0;image;image=img/lib/cumulus/server_bare_metal.svg;" parent="iXk9eSZz2ZHoy0t9PR9_-56" vertex="1">
          <mxGeometry x="410" y="47.129999999999995" width="66" height="13.75" as="geometry" />
        </mxCell>
        <mxCell id="iXk9eSZz2ZHoy0t9PR9_-33" value="Vehicle" style="shape=mxgraph.signs.transportation.car_4;html=1;pointerEvents=1;fillColor=#000000;strokeColor=none;verticalLabelPosition=bottom;verticalAlign=top;align=center;" parent="iXk9eSZz2ZHoy0t9PR9_-56" vertex="1">
          <mxGeometry x="12" y="39" width="48" height="30" as="geometry" />
        </mxCell>
        <mxCell id="iXk9eSZz2ZHoy0t9PR9_-36" value="" style="edgeStyle=orthogonalEdgeStyle;rounded=0;orthogonalLoop=1;jettySize=auto;html=1;" parent="iXk9eSZz2ZHoy0t9PR9_-56" source="iXk9eSZz2ZHoy0t9PR9_-33" target="iXk9eSZz2ZHoy0t9PR9_-34" edge="1">
          <mxGeometry relative="1" as="geometry" />
        </mxCell>
        <mxCell id="iXk9eSZz2ZHoy0t9PR9_-42" value="&lt;font style=&quot;font-size: 12px;&quot;&gt;Trigger Reader&lt;/font&gt;" style="shape=image;html=1;verticalAlign=top;verticalLabelPosition=bottom;labelBackgroundColor=#ffffff;imageAspect=0;aspect=fixed;image=https://cdn1.iconfinder.com/data/icons/smartphone-signal-5g-trading/64/Smartphone_NFC-128.png;fontSize=19;" parent="iXk9eSZz2ZHoy0t9PR9_-56" vertex="1">
          <mxGeometry x="306" y="24.00999999999999" width="60" height="60" as="geometry" />
        </mxCell>
        <mxCell id="iXk9eSZz2ZHoy0t9PR9_-43" value="" style="edgeStyle=orthogonalEdgeStyle;rounded=0;orthogonalLoop=1;jettySize=auto;html=1;fontSize=12;" parent="iXk9eSZz2ZHoy0t9PR9_-56" source="iXk9eSZz2ZHoy0t9PR9_-35" target="iXk9eSZz2ZHoy0t9PR9_-42" edge="1">
          <mxGeometry relative="1" as="geometry" />
        </mxCell>
        <mxCell id="iXk9eSZz2ZHoy0t9PR9_-45" value="" style="edgeStyle=orthogonalEdgeStyle;rounded=0;orthogonalLoop=1;jettySize=auto;html=1;fontSize=12;" parent="iXk9eSZz2ZHoy0t9PR9_-56" source="iXk9eSZz2ZHoy0t9PR9_-42" target="iXk9eSZz2ZHoy0t9PR9_-44" edge="1">
          <mxGeometry relative="1" as="geometry" />
        </mxCell>
        <mxCell id="iXk9eSZz2ZHoy0t9PR9_-66" style="edgeStyle=orthogonalEdgeStyle;rounded=0;orthogonalLoop=1;jettySize=auto;html=1;entryX=0;entryY=0.5;entryDx=0;entryDy=0;fontSize=12;" parent="1" source="iXk9eSZz2ZHoy0t9PR9_-58" target="iXk9eSZz2ZHoy0t9PR9_-60" edge="1">
          <mxGeometry relative="1" as="geometry" />
        </mxCell>
        <mxCell id="iXk9eSZz2ZHoy0t9PR9_-115" style="edgeStyle=orthogonalEdgeStyle;rounded=0;orthogonalLoop=1;jettySize=auto;html=1;fontSize=12;exitX=0;exitY=0.5;exitDx=0;exitDy=0;exitPerimeter=0;fillColor=#f8cecc;strokeColor=#b85450;" parent="1" source="iXk9eSZz2ZHoy0t9PR9_-58" target="iXk9eSZz2ZHoy0t9PR9_-93" edge="1">
          <mxGeometry relative="1" as="geometry" />
        </mxCell>
        <mxCell id="iXk9eSZz2ZHoy0t9PR9_-58" value="Vehicle" style="shape=mxgraph.signs.transportation.car_4;html=1;pointerEvents=1;fillColor=#000000;strokeColor=none;verticalLabelPosition=bottom;verticalAlign=top;align=center;" parent="1" vertex="1">
          <mxGeometry x="90" y="670" width="40" height="30" as="geometry" />
        </mxCell>
        <mxCell id="iXk9eSZz2ZHoy0t9PR9_-74" style="edgeStyle=orthogonalEdgeStyle;rounded=0;orthogonalLoop=1;jettySize=auto;html=1;fontSize=12;" parent="1" source="iXk9eSZz2ZHoy0t9PR9_-60" target="iXk9eSZz2ZHoy0t9PR9_-69" edge="1">
          <mxGeometry relative="1" as="geometry" />
        </mxCell>
        <mxCell id="iXk9eSZz2ZHoy0t9PR9_-60" value="Sensor" style="aspect=fixed;perimeter=ellipsePerimeter;html=1;align=center;fontSize=12;verticalAlign=top;fontColor=#364149;shadow=0;dashed=0;image;image=img/lib/cumulus/server_bare_metal.svg;" parent="1" vertex="1">
          <mxGeometry x="180" y="678.12" width="66" height="13.75" as="geometry" />
        </mxCell>
        <mxCell id="iXk9eSZz2ZHoy0t9PR9_-80" style="edgeStyle=orthogonalEdgeStyle;rounded=0;orthogonalLoop=1;jettySize=auto;html=1;entryX=0;entryY=0.5;entryDx=0;entryDy=0;entryPerimeter=0;fontSize=12;" parent="1" source="iXk9eSZz2ZHoy0t9PR9_-63" target="iXk9eSZz2ZHoy0t9PR9_-76" edge="1">
          <mxGeometry relative="1" as="geometry" />
        </mxCell>
        <mxCell id="iXk9eSZz2ZHoy0t9PR9_-63" value="Snapshot" style="fontColor=#0066CC;verticalAlign=top;verticalLabelPosition=bottom;labelPosition=center;align=center;html=1;outlineConnect=0;fillColor=#CCCCCC;strokeColor=#6881B3;gradientColor=none;gradientDirection=north;strokeWidth=2;shape=mxgraph.networks.security_camera;fontSize=12;" parent="1" vertex="1">
          <mxGeometry x="238.5" y="894.5" width="46" height="35.5" as="geometry" />
        </mxCell>
        <mxCell id="iXk9eSZz2ZHoy0t9PR9_-81" style="edgeStyle=orthogonalEdgeStyle;rounded=0;orthogonalLoop=1;jettySize=auto;html=1;fontSize=12;" parent="1" source="iXk9eSZz2ZHoy0t9PR9_-69" target="iXk9eSZz2ZHoy0t9PR9_-76" edge="1">
          <mxGeometry relative="1" as="geometry" />
        </mxCell>
        <mxCell id="iXk9eSZz2ZHoy0t9PR9_-69" value="" style="sketch=0;outlineConnect=0;fontColor=#232F3E;gradientColor=none;fillColor=#3F8624;strokeColor=none;dashed=0;verticalLabelPosition=bottom;verticalAlign=top;align=center;html=1;fontSize=12;fontStyle=0;aspect=fixed;pointerEvents=1;shape=mxgraph.aws4.iot_thing_plc;" parent="1" vertex="1">
          <mxGeometry x="374" y="722" width="60" height="60" as="geometry" />
        </mxCell>
        <mxCell id="iXk9eSZz2ZHoy0t9PR9_-79" style="edgeStyle=orthogonalEdgeStyle;rounded=0;orthogonalLoop=1;jettySize=auto;html=1;fontSize=12;fillColor=#d5e8d4;strokeColor=#82b366;" parent="1" source="iXk9eSZz2ZHoy0t9PR9_-73" target="iXk9eSZz2ZHoy0t9PR9_-76" edge="1">
          <mxGeometry relative="1" as="geometry" />
        </mxCell>
        <mxCell id="iXk9eSZz2ZHoy0t9PR9_-73" value="&lt;font style=&quot;font-size: 12px;&quot;&gt;Trigger Reader&lt;/font&gt;" style="shape=image;html=1;verticalAlign=top;verticalLabelPosition=bottom;labelBackgroundColor=#ffffff;imageAspect=0;aspect=fixed;image=https://cdn1.iconfinder.com/data/icons/smartphone-signal-5g-trading/64/Smartphone_NFC-128.png;fontSize=19;" parent="1" vertex="1">
          <mxGeometry x="224.5" y="782" width="60" height="60" as="geometry" />
        </mxCell>
        <mxCell id="iXk9eSZz2ZHoy0t9PR9_-78" style="edgeStyle=orthogonalEdgeStyle;rounded=0;orthogonalLoop=1;jettySize=auto;html=1;fontSize=12;entryX=0;entryY=0.5;entryDx=0;entryDy=0;entryPerimeter=0;" parent="1" source="iXk9eSZz2ZHoy0t9PR9_-76" target="iXk9eSZz2ZHoy0t9PR9_-77" edge="1">
          <mxGeometry relative="1" as="geometry">
            <mxPoint x="570" y="850" as="targetPoint" />
            <Array as="points">
              <mxPoint x="480" y="860" />
              <mxPoint x="480" y="860" />
            </Array>
          </mxGeometry>
        </mxCell>
        <mxCell id="iXk9eSZz2ZHoy0t9PR9_-84" style="edgeStyle=orthogonalEdgeStyle;rounded=0;orthogonalLoop=1;jettySize=auto;html=1;entryX=0;entryY=0.5;entryDx=0;entryDy=0;fontSize=12;" parent="1" source="iXk9eSZz2ZHoy0t9PR9_-76" target="iXk9eSZz2ZHoy0t9PR9_-83" edge="1">
          <mxGeometry relative="1" as="geometry" />
        </mxCell>
        <mxCell id="iXk9eSZz2ZHoy0t9PR9_-86" style="edgeStyle=orthogonalEdgeStyle;rounded=0;orthogonalLoop=1;jettySize=auto;html=1;entryX=0;entryY=0.75;entryDx=0;entryDy=0;fontSize=12;" parent="1" source="iXk9eSZz2ZHoy0t9PR9_-76" target="iXk9eSZz2ZHoy0t9PR9_-85" edge="1">
          <mxGeometry relative="1" as="geometry">
            <Array as="points">
              <mxPoint x="470" y="860" />
              <mxPoint x="470" y="716" />
            </Array>
          </mxGeometry>
        </mxCell>
        <mxCell id="iXk9eSZz2ZHoy0t9PR9_-91" value="" style="edgeStyle=orthogonalEdgeStyle;rounded=0;orthogonalLoop=1;jettySize=auto;html=1;fontSize=12;fillColor=#f8cecc;strokeColor=#b85450;" parent="1" source="iXk9eSZz2ZHoy0t9PR9_-76" target="iXk9eSZz2ZHoy0t9PR9_-90" edge="1">
          <mxGeometry relative="1" as="geometry" />
        </mxCell>
        <mxCell id="iXk9eSZz2ZHoy0t9PR9_-76" value="IOT" style="outlineConnect=0;dashed=0;verticalLabelPosition=bottom;verticalAlign=top;align=center;html=1;shape=mxgraph.aws3.aws_iot;fillColor=#5294CF;gradientColor=none;fontSize=12;" parent="1" vertex="1">
          <mxGeometry x="370.25" y="830" width="67.5" height="60" as="geometry" />
        </mxCell>
        <mxCell id="iXk9eSZz2ZHoy0t9PR9_-77" value="Monitor" style="sketch=0;aspect=fixed;pointerEvents=1;shadow=0;dashed=0;html=1;strokeColor=none;labelPosition=center;verticalLabelPosition=bottom;verticalAlign=top;align=center;fillColor=#00188D;shape=mxgraph.mscae.enterprise.performance_monitor;fontSize=12;" parent="1" vertex="1">
          <mxGeometry x="520" y="842" width="50" height="36" as="geometry" />
        </mxCell>
        <mxCell id="iXk9eSZz2ZHoy0t9PR9_-99" value="" style="edgeStyle=orthogonalEdgeStyle;rounded=0;orthogonalLoop=1;jettySize=auto;html=1;fontSize=12;" parent="1" source="iXk9eSZz2ZHoy0t9PR9_-83" target="iXk9eSZz2ZHoy0t9PR9_-98" edge="1">
          <mxGeometry relative="1" as="geometry" />
        </mxCell>
        <mxCell id="iXk9eSZz2ZHoy0t9PR9_-83" value="Open Bare" style="aspect=fixed;perimeter=ellipsePerimeter;html=1;align=center;fontSize=12;verticalAlign=top;fontColor=#364149;shadow=0;dashed=0;image;image=img/lib/cumulus/server_bare_metal.svg;" parent="1" vertex="1">
          <mxGeometry x="520" y="910" width="96" height="20" as="geometry" />
        </mxCell>
        <mxCell id="iXk9eSZz2ZHoy0t9PR9_-92" style="edgeStyle=orthogonalEdgeStyle;rounded=0;orthogonalLoop=1;jettySize=auto;html=1;fontSize=12;fillColor=#f8cecc;strokeColor=#b85450;" parent="1" source="iXk9eSZz2ZHoy0t9PR9_-90" target="iXk9eSZz2ZHoy0t9PR9_-58" edge="1">
          <mxGeometry relative="1" as="geometry" />
        </mxCell>
        <mxCell id="iXk9eSZz2ZHoy0t9PR9_-90" value="Monitor" style="sketch=0;aspect=fixed;pointerEvents=1;shadow=0;dashed=0;html=1;strokeColor=none;labelPosition=center;verticalLabelPosition=bottom;verticalAlign=top;align=center;fillColor=#00188D;shape=mxgraph.mscae.enterprise.performance_monitor;fontSize=12;" parent="1" vertex="1">
          <mxGeometry x="379" y="980" width="50" height="36" as="geometry" />
        </mxCell>
        <mxCell id="iXk9eSZz2ZHoy0t9PR9_-96" value="" style="edgeStyle=orthogonalEdgeStyle;rounded=0;orthogonalLoop=1;jettySize=auto;html=1;fontSize=12;fillColor=#f8cecc;strokeColor=#b85450;" parent="1" source="iXk9eSZz2ZHoy0t9PR9_-93" target="iXk9eSZz2ZHoy0t9PR9_-95" edge="1">
          <mxGeometry relative="1" as="geometry" />
        </mxCell>
        <mxCell id="iXk9eSZz2ZHoy0t9PR9_-93" value="help" style="labelPosition=center;verticalLabelPosition=middle;align=center;html=1;shape=mxgraph.basic.shaded_button;dx=10;fillColor=#E6E6E6;strokeColor=none;fontSize=12;" parent="1" vertex="1">
          <mxGeometry x="22.499999999999986" y="1030" width="78" height="40" as="geometry" />
        </mxCell>
        <mxCell id="iXk9eSZz2ZHoy0t9PR9_-114" value="" style="edgeStyle=orthogonalEdgeStyle;rounded=0;orthogonalLoop=1;jettySize=auto;html=1;fontSize=12;fillColor=#d5e8d4;strokeColor=#82b366;" parent="1" source="iXk9eSZz2ZHoy0t9PR9_-94" target="iXk9eSZz2ZHoy0t9PR9_-95" edge="1">
          <mxGeometry relative="1" as="geometry" />
        </mxCell>
        <mxCell id="iXk9eSZz2ZHoy0t9PR9_-94" value="Monitor" style="sketch=0;aspect=fixed;pointerEvents=1;shadow=0;dashed=0;html=1;strokeColor=none;labelPosition=center;verticalLabelPosition=bottom;verticalAlign=top;align=center;fillColor=#00188D;shape=mxgraph.mscae.enterprise.performance_monitor;fontSize=12;" parent="1" vertex="1">
          <mxGeometry x="236.5" y="1032.59" width="50" height="36" as="geometry" />
        </mxCell>
        <mxCell id="iXk9eSZz2ZHoy0t9PR9_-118" value="Register/RFID" style="edgeStyle=orthogonalEdgeStyle;rounded=0;orthogonalLoop=1;jettySize=auto;html=1;fontSize=12;" parent="1" source="iXk9eSZz2ZHoy0t9PR9_-95" target="iXk9eSZz2ZHoy0t9PR9_-83" edge="1">
          <mxGeometry relative="1" as="geometry">
            <Array as="points">
              <mxPoint x="170" y="1110" />
              <mxPoint x="568" y="1110" />
            </Array>
          </mxGeometry>
        </mxCell>
        <mxCell id="iXk9eSZz2ZHoy0t9PR9_-95" value="petugas" style="shape=mxgraph.cisco.people.androgenous_person;html=1;pointerEvents=1;dashed=0;fillColor=#036897;strokeColor=#ffffff;strokeWidth=2;verticalLabelPosition=bottom;verticalAlign=top;align=center;outlineConnect=0;fontSize=12;" parent="1" vertex="1">
          <mxGeometry x="149.99999999999997" y="1030" width="40" height="41.19" as="geometry" />
        </mxCell>
        <mxCell id="iXk9eSZz2ZHoy0t9PR9_-123" style="edgeStyle=orthogonalEdgeStyle;rounded=0;orthogonalLoop=1;jettySize=auto;html=1;fontSize=12;" parent="1" source="iXk9eSZz2ZHoy0t9PR9_-98" target="iXk9eSZz2ZHoy0t9PR9_-121" edge="1">
          <mxGeometry relative="1" as="geometry" />
        </mxCell>
        <mxCell id="iXk9eSZz2ZHoy0t9PR9_-98" value="Location" style="html=1;verticalLabelPosition=bottom;align=center;labelBackgroundColor=#ffffff;verticalAlign=top;strokeWidth=2;strokeColor=#0080F0;shadow=0;dashed=0;shape=mxgraph.ios7.icons.location_2;fontSize=12;" parent="1" vertex="1">
          <mxGeometry x="668.74" y="905" width="33" height="30" as="geometry" />
        </mxCell>
        <mxCell id="iXk9eSZz2ZHoy0t9PR9_-102" style="edgeStyle=orthogonalEdgeStyle;rounded=0;orthogonalLoop=1;jettySize=auto;html=1;entryX=0.5;entryY=0;entryDx=0;entryDy=0;entryPerimeter=0;fontSize=12;" parent="1" source="iXk9eSZz2ZHoy0t9PR9_-100" target="iXk9eSZz2ZHoy0t9PR9_-77" edge="1">
          <mxGeometry relative="1" as="geometry" />
        </mxCell>
        <mxCell id="iXk9eSZz2ZHoy0t9PR9_-100" value="" style="sketch=0;outlineConnect=0;fontColor=#232F3E;gradientColor=none;fillColor=#BF0816;strokeColor=none;dashed=0;verticalLabelPosition=bottom;verticalAlign=top;align=center;html=1;fontSize=12;fontStyle=0;aspect=fixed;shape=mxgraph.aws4.location_service_map;" parent="1" vertex="1">
          <mxGeometry x="520" y="762.87" width="48" height="48" as="geometry" />
        </mxCell>
        <mxCell id="iXk9eSZz2ZHoy0t9PR9_-117" value="" style="group" parent="1" vertex="1" connectable="0">
          <mxGeometry x="690" y="670" width="210.48000000000002" height="64" as="geometry" />
        </mxCell>
        <mxCell id="iXk9eSZz2ZHoy0t9PR9_-85" value="local db" style="aspect=fixed;perimeter=ellipsePerimeter;html=1;align=center;shadow=0;dashed=0;spacingTop=3;image;image=img/lib/active_directory/database_server.svg;fontSize=12;" parent="iXk9eSZz2ZHoy0t9PR9_-117" vertex="1">
          <mxGeometry width="52.48" height="64" as="geometry" />
        </mxCell>
        <mxCell id="iXk9eSZz2ZHoy0t9PR9_-88" value="cloud" style="aspect=fixed;perimeter=ellipsePerimeter;html=1;align=center;shadow=0;dashed=0;spacingTop=3;image;image=img/lib/active_directory/internet_cloud.svg;fontSize=12;" parent="iXk9eSZz2ZHoy0t9PR9_-117" vertex="1">
          <mxGeometry x="120" y="3.5" width="90.48" height="57" as="geometry" />
        </mxCell>
        <mxCell id="iXk9eSZz2ZHoy0t9PR9_-89" value="volley" style="edgeStyle=orthogonalEdgeStyle;rounded=0;orthogonalLoop=1;jettySize=auto;html=1;entryX=0;entryY=0.5;entryDx=0;entryDy=0;fontSize=12;" parent="iXk9eSZz2ZHoy0t9PR9_-117" source="iXk9eSZz2ZHoy0t9PR9_-85" target="iXk9eSZz2ZHoy0t9PR9_-88" edge="1">
          <mxGeometry relative="1" as="geometry" />
        </mxCell>
        <mxCell id="iXk9eSZz2ZHoy0t9PR9_-124" style="edgeStyle=orthogonalEdgeStyle;rounded=0;orthogonalLoop=1;jettySize=auto;html=1;fontSize=12;" parent="1" source="iXk9eSZz2ZHoy0t9PR9_-121" target="iXk9eSZz2ZHoy0t9PR9_-85" edge="1">
          <mxGeometry relative="1" as="geometry" />
        </mxCell>
        <mxCell id="iXk9eSZz2ZHoy0t9PR9_-121" value="" style="html=1;verticalLabelPosition=bottom;labelBackgroundColor=#ffffff;verticalAlign=top;shadow=0;dashed=0;strokeWidth=2;shape=mxgraph.ios7.misc.current_location;strokeColor=#ffffff;fillColor=#0080F0;sketch=0;fontSize=12;" parent="1" vertex="1">
          <mxGeometry x="750" y="890" width="60" height="60" as="geometry" />
        </mxCell>
        <mxCell id="iXk9eSZz2ZHoy0t9PR9_-198" value="" style="group" parent="1" vertex="1" connectable="0">
          <mxGeometry x="39.999999999999986" y="1160" width="779.01" height="440" as="geometry" />
        </mxCell>
        <mxCell id="iXk9eSZz2ZHoy0t9PR9_-162" style="edgeStyle=orthogonalEdgeStyle;rounded=0;orthogonalLoop=1;jettySize=auto;html=1;fontSize=12;exitX=0;exitY=0.5;exitDx=0;exitDy=0;exitPerimeter=0;fillColor=#f8cecc;strokeColor=#b85450;" parent="iXk9eSZz2ZHoy0t9PR9_-198" source="iXk9eSZz2ZHoy0t9PR9_-163" edge="1">
          <mxGeometry relative="1" as="geometry">
            <mxPoint x="30.510000000000012" y="360" as="targetPoint" />
          </mxGeometry>
        </mxCell>
        <mxCell id="iXk9eSZz2ZHoy0t9PR9_-163" value="Vehicle" style="shape=mxgraph.signs.transportation.car_4;html=1;pointerEvents=1;fillColor=#000000;strokeColor=none;verticalLabelPosition=bottom;verticalAlign=top;align=center;" parent="iXk9eSZz2ZHoy0t9PR9_-198" vertex="1">
          <mxGeometry x="59.01000000000001" width="40" height="30" as="geometry" />
        </mxCell>
        <mxCell id="iXk9eSZz2ZHoy0t9PR9_-165" value="Sensor" style="aspect=fixed;perimeter=ellipsePerimeter;html=1;align=center;fontSize=12;verticalAlign=top;fontColor=#364149;shadow=0;dashed=0;image;image=img/lib/cumulus/server_bare_metal.svg;" parent="iXk9eSZz2ZHoy0t9PR9_-198" vertex="1">
          <mxGeometry x="149.01" y="8.11999999999989" width="66" height="13.75" as="geometry" />
        </mxCell>
        <mxCell id="iXk9eSZz2ZHoy0t9PR9_-161" style="edgeStyle=orthogonalEdgeStyle;rounded=0;orthogonalLoop=1;jettySize=auto;html=1;entryX=0;entryY=0.5;entryDx=0;entryDy=0;fontSize=12;" parent="iXk9eSZz2ZHoy0t9PR9_-198" source="iXk9eSZz2ZHoy0t9PR9_-163" target="iXk9eSZz2ZHoy0t9PR9_-165" edge="1">
          <mxGeometry relative="1" as="geometry" />
        </mxCell>
        <mxCell id="iXk9eSZz2ZHoy0t9PR9_-167" value="Snapshot" style="fontColor=#0066CC;verticalAlign=top;verticalLabelPosition=bottom;labelPosition=center;align=center;html=1;outlineConnect=0;fillColor=#CCCCCC;strokeColor=#6881B3;gradientColor=none;gradientDirection=north;strokeWidth=2;shape=mxgraph.networks.security_camera;fontSize=12;" parent="iXk9eSZz2ZHoy0t9PR9_-198" vertex="1">
          <mxGeometry x="207.51" y="224.5" width="46" height="35.5" as="geometry" />
        </mxCell>
        <mxCell id="iXk9eSZz2ZHoy0t9PR9_-169" value="" style="sketch=0;outlineConnect=0;fontColor=#232F3E;gradientColor=none;fillColor=#3F8624;strokeColor=none;dashed=0;verticalLabelPosition=bottom;verticalAlign=top;align=center;html=1;fontSize=12;fontStyle=0;aspect=fixed;pointerEvents=1;shape=mxgraph.aws4.iot_thing_plc;" parent="iXk9eSZz2ZHoy0t9PR9_-198" vertex="1">
          <mxGeometry x="343.01" y="52" width="60" height="60" as="geometry" />
        </mxCell>
        <mxCell id="iXk9eSZz2ZHoy0t9PR9_-164" style="edgeStyle=orthogonalEdgeStyle;rounded=0;orthogonalLoop=1;jettySize=auto;html=1;fontSize=12;" parent="iXk9eSZz2ZHoy0t9PR9_-198" source="iXk9eSZz2ZHoy0t9PR9_-165" target="iXk9eSZz2ZHoy0t9PR9_-169" edge="1">
          <mxGeometry relative="1" as="geometry" />
        </mxCell>
        <mxCell id="iXk9eSZz2ZHoy0t9PR9_-171" value="&lt;font style=&quot;font-size: 12px;&quot;&gt;Trigger Reader&lt;/font&gt;" style="shape=image;html=1;verticalAlign=top;verticalLabelPosition=bottom;labelBackgroundColor=#ffffff;imageAspect=0;aspect=fixed;image=https://cdn1.iconfinder.com/data/icons/smartphone-signal-5g-trading/64/Smartphone_NFC-128.png;fontSize=19;" parent="iXk9eSZz2ZHoy0t9PR9_-198" vertex="1">
          <mxGeometry x="193.51" y="112" width="60" height="60" as="geometry" />
        </mxCell>
        <mxCell id="iXk9eSZz2ZHoy0t9PR9_-176" value="IOT" style="outlineConnect=0;dashed=0;verticalLabelPosition=bottom;verticalAlign=top;align=center;html=1;shape=mxgraph.aws3.aws_iot;fillColor=#5294CF;gradientColor=none;fontSize=12;" parent="iXk9eSZz2ZHoy0t9PR9_-198" vertex="1">
          <mxGeometry x="339.26" y="160" width="67.5" height="60" as="geometry" />
        </mxCell>
        <mxCell id="iXk9eSZz2ZHoy0t9PR9_-166" style="edgeStyle=orthogonalEdgeStyle;rounded=0;orthogonalLoop=1;jettySize=auto;html=1;entryX=0;entryY=0.5;entryDx=0;entryDy=0;entryPerimeter=0;fontSize=12;" parent="iXk9eSZz2ZHoy0t9PR9_-198" source="iXk9eSZz2ZHoy0t9PR9_-167" target="iXk9eSZz2ZHoy0t9PR9_-176" edge="1">
          <mxGeometry relative="1" as="geometry" />
        </mxCell>
        <mxCell id="iXk9eSZz2ZHoy0t9PR9_-168" style="edgeStyle=orthogonalEdgeStyle;rounded=0;orthogonalLoop=1;jettySize=auto;html=1;fontSize=12;" parent="iXk9eSZz2ZHoy0t9PR9_-198" source="iXk9eSZz2ZHoy0t9PR9_-169" target="iXk9eSZz2ZHoy0t9PR9_-176" edge="1">
          <mxGeometry relative="1" as="geometry" />
        </mxCell>
        <mxCell id="iXk9eSZz2ZHoy0t9PR9_-170" style="edgeStyle=orthogonalEdgeStyle;rounded=0;orthogonalLoop=1;jettySize=auto;html=1;fontSize=12;fillColor=#d5e8d4;strokeColor=#82b366;" parent="iXk9eSZz2ZHoy0t9PR9_-198" source="iXk9eSZz2ZHoy0t9PR9_-171" target="iXk9eSZz2ZHoy0t9PR9_-176" edge="1">
          <mxGeometry relative="1" as="geometry" />
        </mxCell>
        <mxCell id="iXk9eSZz2ZHoy0t9PR9_-177" value="Monitor" style="sketch=0;aspect=fixed;pointerEvents=1;shadow=0;dashed=0;html=1;strokeColor=none;labelPosition=center;verticalLabelPosition=bottom;verticalAlign=top;align=center;fillColor=#00188D;shape=mxgraph.mscae.enterprise.performance_monitor;fontSize=12;" parent="iXk9eSZz2ZHoy0t9PR9_-198" vertex="1">
          <mxGeometry x="489.01" y="172" width="50" height="36" as="geometry" />
        </mxCell>
        <mxCell id="iXk9eSZz2ZHoy0t9PR9_-172" style="edgeStyle=orthogonalEdgeStyle;rounded=0;orthogonalLoop=1;jettySize=auto;html=1;fontSize=12;entryX=0;entryY=0.5;entryDx=0;entryDy=0;entryPerimeter=0;" parent="iXk9eSZz2ZHoy0t9PR9_-198" source="iXk9eSZz2ZHoy0t9PR9_-176" target="iXk9eSZz2ZHoy0t9PR9_-177" edge="1">
          <mxGeometry relative="1" as="geometry">
            <mxPoint x="539.01" y="180" as="targetPoint" />
            <Array as="points">
              <mxPoint x="449.01" y="190" />
              <mxPoint x="449.01" y="190" />
            </Array>
          </mxGeometry>
        </mxCell>
        <mxCell id="iXk9eSZz2ZHoy0t9PR9_-203" style="edgeStyle=orthogonalEdgeStyle;rounded=0;orthogonalLoop=1;jettySize=auto;html=1;entryX=0.5;entryY=1;entryDx=0;entryDy=0;fontSize=20;" parent="iXk9eSZz2ZHoy0t9PR9_-198" source="iXk9eSZz2ZHoy0t9PR9_-179" target="iXk9eSZz2ZHoy0t9PR9_-192" edge="1">
          <mxGeometry relative="1" as="geometry">
            <Array as="points">
              <mxPoint x="576" y="230" />
              <mxPoint x="576" y="230" />
            </Array>
          </mxGeometry>
        </mxCell>
        <mxCell id="iXk9eSZz2ZHoy0t9PR9_-179" value="Open Bare" style="aspect=fixed;perimeter=ellipsePerimeter;html=1;align=center;fontSize=12;verticalAlign=top;fontColor=#364149;shadow=0;dashed=0;image;image=img/lib/cumulus/server_bare_metal.svg;" parent="iXk9eSZz2ZHoy0t9PR9_-198" vertex="1">
          <mxGeometry x="489.01" y="240" width="96" height="20" as="geometry" />
        </mxCell>
        <mxCell id="iXk9eSZz2ZHoy0t9PR9_-173" style="edgeStyle=orthogonalEdgeStyle;rounded=0;orthogonalLoop=1;jettySize=auto;html=1;entryX=0;entryY=0.5;entryDx=0;entryDy=0;fontSize=12;" parent="iXk9eSZz2ZHoy0t9PR9_-198" source="iXk9eSZz2ZHoy0t9PR9_-176" target="iXk9eSZz2ZHoy0t9PR9_-179" edge="1">
          <mxGeometry relative="1" as="geometry" />
        </mxCell>
        <mxCell id="iXk9eSZz2ZHoy0t9PR9_-180" style="edgeStyle=orthogonalEdgeStyle;rounded=0;orthogonalLoop=1;jettySize=auto;html=1;fontSize=12;fillColor=#f8cecc;strokeColor=#b85450;" parent="iXk9eSZz2ZHoy0t9PR9_-198" source="iXk9eSZz2ZHoy0t9PR9_-181" target="iXk9eSZz2ZHoy0t9PR9_-163" edge="1">
          <mxGeometry relative="1" as="geometry" />
        </mxCell>
        <mxCell id="iXk9eSZz2ZHoy0t9PR9_-181" value="Monitor" style="sketch=0;aspect=fixed;pointerEvents=1;shadow=0;dashed=0;html=1;strokeColor=none;labelPosition=center;verticalLabelPosition=bottom;verticalAlign=top;align=center;fillColor=#00188D;shape=mxgraph.mscae.enterprise.performance_monitor;fontSize=12;" parent="iXk9eSZz2ZHoy0t9PR9_-198" vertex="1">
          <mxGeometry x="348.01" y="310" width="50" height="36" as="geometry" />
        </mxCell>
        <mxCell id="iXk9eSZz2ZHoy0t9PR9_-175" value="" style="edgeStyle=orthogonalEdgeStyle;rounded=0;orthogonalLoop=1;jettySize=auto;html=1;fontSize=12;fillColor=#f8cecc;strokeColor=#b85450;" parent="iXk9eSZz2ZHoy0t9PR9_-198" source="iXk9eSZz2ZHoy0t9PR9_-176" target="iXk9eSZz2ZHoy0t9PR9_-181" edge="1">
          <mxGeometry relative="1" as="geometry" />
        </mxCell>
        <mxCell id="iXk9eSZz2ZHoy0t9PR9_-182" value="" style="edgeStyle=orthogonalEdgeStyle;rounded=0;orthogonalLoop=1;jettySize=auto;html=1;fontSize=12;fillColor=#f8cecc;strokeColor=#b85450;" parent="iXk9eSZz2ZHoy0t9PR9_-198" target="iXk9eSZz2ZHoy0t9PR9_-186" edge="1">
          <mxGeometry relative="1" as="geometry">
            <mxPoint x="69.51" y="380" as="sourcePoint" />
          </mxGeometry>
        </mxCell>
        <mxCell id="iXk9eSZz2ZHoy0t9PR9_-184" value="Monitor" style="sketch=0;aspect=fixed;pointerEvents=1;shadow=0;dashed=0;html=1;strokeColor=none;labelPosition=center;verticalLabelPosition=bottom;verticalAlign=top;align=center;fillColor=#00188D;shape=mxgraph.mscae.enterprise.performance_monitor;fontSize=12;" parent="iXk9eSZz2ZHoy0t9PR9_-198" vertex="1">
          <mxGeometry x="205.51" y="362.5899999999999" width="50" height="36" as="geometry" />
        </mxCell>
        <mxCell id="iXk9eSZz2ZHoy0t9PR9_-185" value="Register/RFID" style="edgeStyle=orthogonalEdgeStyle;rounded=0;orthogonalLoop=1;jettySize=auto;html=1;fontSize=12;" parent="iXk9eSZz2ZHoy0t9PR9_-198" source="iXk9eSZz2ZHoy0t9PR9_-186" target="iXk9eSZz2ZHoy0t9PR9_-179" edge="1">
          <mxGeometry relative="1" as="geometry">
            <Array as="points">
              <mxPoint x="139.01" y="440" />
              <mxPoint x="537.01" y="440" />
            </Array>
          </mxGeometry>
        </mxCell>
        <mxCell id="iXk9eSZz2ZHoy0t9PR9_-186" value="Operator" style="shape=mxgraph.cisco.people.androgenous_person;html=1;pointerEvents=1;dashed=0;fillColor=#036897;strokeColor=#ffffff;strokeWidth=2;verticalLabelPosition=bottom;verticalAlign=top;align=center;outlineConnect=0;fontSize=12;" parent="iXk9eSZz2ZHoy0t9PR9_-198" vertex="1">
          <mxGeometry x="119.00999999999998" y="360" width="40" height="41.19" as="geometry" />
        </mxCell>
        <mxCell id="iXk9eSZz2ZHoy0t9PR9_-183" value="" style="edgeStyle=orthogonalEdgeStyle;rounded=0;orthogonalLoop=1;jettySize=auto;html=1;fontSize=12;fillColor=#d5e8d4;strokeColor=#82b366;" parent="iXk9eSZz2ZHoy0t9PR9_-198" source="iXk9eSZz2ZHoy0t9PR9_-184" target="iXk9eSZz2ZHoy0t9PR9_-186" edge="1">
          <mxGeometry relative="1" as="geometry" />
        </mxCell>
        <mxCell id="iXk9eSZz2ZHoy0t9PR9_-197" value="help" style="labelPosition=center;verticalLabelPosition=middle;align=center;html=1;shape=mxgraph.basic.shaded_button;dx=10;fillColor=#E6E6E6;strokeColor=none;fontSize=12;" parent="iXk9eSZz2ZHoy0t9PR9_-198" vertex="1">
          <mxGeometry y="360" width="78" height="40" as="geometry" />
        </mxCell>
        <mxCell id="iXk9eSZz2ZHoy0t9PR9_-191" value="" style="group" parent="iXk9eSZz2ZHoy0t9PR9_-198" vertex="1" connectable="0">
          <mxGeometry x="550" y="60" width="210.48000000000002" height="64" as="geometry" />
        </mxCell>
        <mxCell id="iXk9eSZz2ZHoy0t9PR9_-192" value="local db" style="aspect=fixed;perimeter=ellipsePerimeter;html=1;align=center;shadow=0;dashed=0;spacingTop=3;image;image=img/lib/active_directory/database_server.svg;fontSize=12;" parent="iXk9eSZz2ZHoy0t9PR9_-191" vertex="1">
          <mxGeometry width="52.48" height="64" as="geometry" />
        </mxCell>
        <mxCell id="iXk9eSZz2ZHoy0t9PR9_-193" value="cloud" style="aspect=fixed;perimeter=ellipsePerimeter;html=1;align=center;shadow=0;dashed=0;spacingTop=3;image;image=img/lib/active_directory/internet_cloud.svg;fontSize=12;" parent="iXk9eSZz2ZHoy0t9PR9_-191" vertex="1">
          <mxGeometry x="120" y="3.5" width="90.48" height="57" as="geometry" />
        </mxCell>
        <mxCell id="iXk9eSZz2ZHoy0t9PR9_-194" value="volley" style="edgeStyle=orthogonalEdgeStyle;rounded=0;orthogonalLoop=1;jettySize=auto;html=1;entryX=0;entryY=0.5;entryDx=0;entryDy=0;fontSize=12;" parent="iXk9eSZz2ZHoy0t9PR9_-191" source="iXk9eSZz2ZHoy0t9PR9_-192" target="iXk9eSZz2ZHoy0t9PR9_-193" edge="1">
          <mxGeometry relative="1" as="geometry" />
        </mxCell>
        <mxCell id="iXk9eSZz2ZHoy0t9PR9_-199" value="&lt;b&gt;&lt;font style=&quot;font-size: 20px;&quot;&gt;Out&lt;/font&gt;&lt;/b&gt;" style="text;html=1;strokeColor=none;fillColor=none;align=center;verticalAlign=middle;whiteSpace=wrap;rounded=0;fontSize=12;strokeWidth=40;" parent="1" vertex="1">
          <mxGeometry x="10" y="1130" width="60" height="30" as="geometry" />
        </mxCell>
        <mxCell id="iXk9eSZz2ZHoy0t9PR9_-200" value="&lt;b&gt;&lt;font style=&quot;font-size: 20px;&quot;&gt;In&lt;/font&gt;&lt;/b&gt;" style="text;html=1;strokeColor=none;fillColor=none;align=center;verticalAlign=middle;whiteSpace=wrap;rounded=0;fontSize=12;strokeWidth=40;" parent="1" vertex="1">
          <mxGeometry x="22.5" y="620" width="60" height="30" as="geometry" />
        </mxCell>
        <mxCell id="iXk9eSZz2ZHoy0t9PR9_-211" value="" style="group" parent="1" vertex="1" connectable="0">
          <mxGeometry x="70" y="1650" width="580" height="400" as="geometry" />
        </mxCell>
        <mxCell id="iXk9eSZz2ZHoy0t9PR9_-55" value="" style="group" parent="iXk9eSZz2ZHoy0t9PR9_-211" vertex="1" connectable="0">
          <mxGeometry y="30" width="120" height="240" as="geometry" />
        </mxCell>
        <mxCell id="iXk9eSZz2ZHoy0t9PR9_-210" value="" style="group" parent="iXk9eSZz2ZHoy0t9PR9_-55" vertex="1" connectable="0">
          <mxGeometry width="120" height="240" as="geometry" />
        </mxCell>
        <mxCell id="iXk9eSZz2ZHoy0t9PR9_-48" value="" style="shape=cube;whiteSpace=wrap;html=1;boundedLbl=1;backgroundOutline=1;darkOpacity=0.05;darkOpacity2=0.1;fontSize=12;" parent="iXk9eSZz2ZHoy0t9PR9_-210" vertex="1">
          <mxGeometry width="120" height="240" as="geometry" />
        </mxCell>
        <mxCell id="iXk9eSZz2ZHoy0t9PR9_-50" value="" style="sketch=0;aspect=fixed;pointerEvents=1;shadow=0;dashed=0;html=1;strokeColor=none;labelPosition=center;verticalLabelPosition=bottom;verticalAlign=top;align=center;fillColor=#00188D;shape=mxgraph.mscae.enterprise.performance_monitor;fontSize=12;" parent="iXk9eSZz2ZHoy0t9PR9_-210" vertex="1">
          <mxGeometry x="30" y="29.200000000000045" width="84.44" height="60.8" as="geometry" />
        </mxCell>
        <mxCell id="iXk9eSZz2ZHoy0t9PR9_-51" value="" style="html=1;shadow=0;dashed=0;shape=mxgraph.bootstrap.radioButton2;labelPosition=right;verticalLabelPosition=middle;align=left;verticalAlign=middle;gradientColor=#DEDEDE;fillColor=#EDEDED;checked=0;spacing=5;checkedFill=#0085FC;checkedStroke=#ffffff;sketch=0;fontSize=12;" parent="iXk9eSZz2ZHoy0t9PR9_-210" vertex="1">
          <mxGeometry x="100" y="160" width="10" height="10" as="geometry" />
        </mxCell>
        <mxCell id="iXk9eSZz2ZHoy0t9PR9_-53" value="card" style="html=1;strokeColor=none;fillColor=#0079D6;labelPosition=center;verticalLabelPosition=middle;verticalAlign=top;align=center;fontSize=12;outlineConnect=0;spacingTop=-6;fontColor=#FFFFFF;sketch=0;shape=mxgraph.sitemap.payment;" parent="iXk9eSZz2ZHoy0t9PR9_-210" vertex="1">
          <mxGeometry x="58.33000000000001" y="100" width="27.78" height="20" as="geometry" />
        </mxCell>
        <mxCell id="iXk9eSZz2ZHoy0t9PR9_-205" value="" style="shape=cube;whiteSpace=wrap;html=1;boundedLbl=1;backgroundOutline=1;darkOpacity=0.05;darkOpacity2=0.1;fontSize=20;strokeColor=none;strokeWidth=40;fillColor=#99CCFF;" parent="iXk9eSZz2ZHoy0t9PR9_-211" vertex="1">
          <mxGeometry x="163.51" y="90" width="77.75" height="180" as="geometry" />
        </mxCell>
        <mxCell id="iXk9eSZz2ZHoy0t9PR9_-206" value="" style="verticalLabelPosition=bottom;verticalAlign=top;html=1;shape=mxgraph.basic.diag_stripe;dx=0;fontSize=20;strokeColor=#F7F7F7;strokeWidth=20;fillColor=#99CCFF;shadow=1;" parent="iXk9eSZz2ZHoy0t9PR9_-211" vertex="1">
          <mxGeometry x="200" width="380" height="120" as="geometry" />
        </mxCell>
        <mxCell id="iXk9eSZz2ZHoy0t9PR9_-207" value="" style="shape=cylinder3;whiteSpace=wrap;html=1;boundedLbl=1;backgroundOutline=1;size=15;lid=0;shadow=1;fontSize=20;strokeColor=#4D4D4D;strokeWidth=20;fillColor=#4D4D4D;direction=north;" parent="iXk9eSZz2ZHoy0t9PR9_-211" vertex="1">
          <mxGeometry x="136" y="300" width="40" height="20" as="geometry" />
        </mxCell>
        <mxCell id="iXk9eSZz2ZHoy0t9PR9_-208" value="" style="shape=cylinder3;whiteSpace=wrap;html=1;boundedLbl=1;backgroundOutline=1;size=15;lid=0;shadow=1;fontSize=20;strokeColor=#d6b656;strokeWidth=20;fillColor=#fff2cc;direction=north;" parent="iXk9eSZz2ZHoy0t9PR9_-211" vertex="1">
          <mxGeometry x="150" y="340" width="40" height="20" as="geometry" />
        </mxCell>
        <mxCell id="iXk9eSZz2ZHoy0t9PR9_-209" value="" style="shape=cylinder3;whiteSpace=wrap;html=1;boundedLbl=1;backgroundOutline=1;size=15;lid=0;shadow=1;fontSize=20;strokeColor=#4D4D4D;strokeWidth=20;fillColor=#4D4D4D;direction=north;" parent="iXk9eSZz2ZHoy0t9PR9_-211" vertex="1">
          <mxGeometry x="176" y="380" width="40" height="20" as="geometry" />
        </mxCell>
        <mxCell id="iXk9eSZz2ZHoy0t9PR9_-212" value="" style="points=[[0.015,0.015,0],[0.5,0,0],[0.985,0.015,0],[1,0.22,0],[0.985,0.43,0],[0.73,0.85,0],[0.5,1,0],[0.285,0.85,0],[0.015,0.43,0],[0,0.22,0]];verticalLabelPosition=bottom;sketch=0;html=1;verticalAlign=top;aspect=fixed;align=center;pointerEvents=1;shape=mxgraph.cisco19.surveillance_camera;fillColor=#005073;strokeColor=none;shadow=1;fontSize=20;direction=west;" parent="iXk9eSZz2ZHoy0t9PR9_-211" vertex="1">
          <mxGeometry x="40" width="64" height="50" as="geometry" />
        </mxCell>
        <mxCell id="niNdClCuxkNc6g85MSuC-1" value="&lt;div&gt;mx 90 servo&lt;/div&gt;&lt;div&gt;metal s&lt;/div&gt;&lt;div&gt;loop s&lt;/div&gt;&lt;div&gt;lcd touchscreen Rasp&lt;/div&gt;&lt;div&gt;rfid&lt;/div&gt;&lt;div&gt;nfc&lt;/div&gt;&lt;div&gt;button wth ir/ultrasonic&lt;/div&gt;&lt;div&gt;teknisi dan operator&lt;/div&gt;&lt;div&gt;search via timestamp nopol teknisi dan operator&lt;/div&gt;&lt;div&gt;nggak ada hubungan nya dengan uang&lt;/div&gt;&lt;div&gt;camera get nopol&lt;br&gt;nfc reader get no nfc id pembayaran awal&lt;/div&gt;&lt;div&gt;Register&lt;/div&gt;&lt;div&gt;user&lt;/div&gt;&lt;div&gt;management&lt;/div&gt;&lt;div&gt;&lt;br&gt;&lt;/div&gt;" style="text;html=1;strokeColor=none;fillColor=none;align=center;verticalAlign=middle;whiteSpace=wrap;rounded=0;" vertex="1" parent="1">
          <mxGeometry x="590" y="210" width="380" height="400" as="geometry" />
        </mxCell>
      </root>
    </mxGraphModel>
  </diagram>
</mxfile>
